<?xml version="1.0" encoding="UTF-8"?>
<svg version="1.1" xmlns="http://www.w3.org/2000/svg" width="500" height="500">
<path d="M0 0 C165 0 330 0 500 0 C500 165 500 330 500 500 C335 500 170 500 0 500 C0 335 0 170 0 0 Z " fill="#000000" transform="translate(0,0)"/>
<path d="M0 0 C21.91558002 -0.14077646 43.83108444 -0.24626595 65.74702644 -0.31087303 C75.92525563 -0.34168176 86.10320229 -0.38361083 96.28125 -0.45263672 C105.1626414 -0.51283967 114.04382797 -0.55124321 122.92541778 -0.56453097 C127.61901549 -0.57228626 132.31202776 -0.59023426 137.00543594 -0.63438034 C173.90834488 -0.96777107 204.72825586 4.85848255 232.2890625 31.32421875 C252.74789922 51.51773915 264.89561146 77.97893086 265.29223633 106.82666016 C265.3729321 119.38171887 265.3587561 131.04536602 261 143 C260.61457031 144.12664062 260.22914063 145.25328125 259.83203125 146.4140625 C253.83022587 163.00157639 245.04701057 176.20280928 233 189 C232.46117187 189.60328125 231.92234375 190.2065625 231.3671875 190.828125 C219.06408761 204.05859423 201.68105141 212.92732863 184.375 217.4375 C175.84427752 219.69932983 169.05302672 223.72717254 161.62158203 228.38867188 C156.73778041 231.39044974 151.76034913 234.23384444 146.79196167 237.09259033 C145.01559444 238.11601552 143.24206248 239.14421215 141.46899414 240.17333984 C139.84465454 241.11234131 139.84465454 241.11234131 138.1875 242.0703125 C137.21167969 242.63508301 136.23585937 243.19985352 135.23046875 243.78173828 C133 245 133 245 132 245 C132 222.56 132 200.12 132 177 C141.9 176.67 151.8 176.34 162 176 C173.69963 173.71285236 173.69963 173.71285236 184.25 169.375 C184.91765381 169.03017578 185.58530762 168.68535156 186.27319336 168.33007812 C192.33852999 165.0631689 197.24138769 160.97973742 202 156 C202.63164062 155.38769531 203.26328125 154.77539062 203.9140625 154.14453125 C215.67696426 141.99298736 220.71195626 123.87352874 220.46850586 107.29248047 C219.68577804 89.47571512 211.76377148 74.21549951 199 62 C185.14264699 49.37721117 168.3609318 44.33186564 149.94213867 45.13647461 C146.48712977 45.30833493 143.03383592 45.49845025 139.58044815 45.70028496 C44.05422627 50.9704615 44.05422627 50.9704615 22.28700256 31.55589294 C13.22360093 22.92516979 5.38296168 12.30061475 0 1 C0 0.67 0 0.34 0 0 Z " fill="#D8D8D8" transform="translate(118,102)"/>
<path d="M0 0 C28.1840625 -0.12375 28.1840625 -0.12375 56.9375 -0.25 C65.82030884 -0.30462402 65.82030884 -0.30462402 74.88256836 -0.36035156 C82.14172363 -0.37841797 82.14172363 -0.37841797 85.54542542 -0.3817749 C87.91089389 -0.38789718 90.27635027 -0.40192391 92.64173889 -0.42230225 C96.23525514 -0.45170021 99.82801187 -0.4556201 103.42163086 -0.45410156 C104.46660956 -0.468494 105.51158827 -0.48288643 106.58823299 -0.497715 C115.1978593 -0.44920886 122.76975918 1.76975918 129 8 C133.50367017 13.5991575 133.44139532 18.53723104 133.43359375 25.59765625 C132.70930498 31.28103927 130.02498033 35.97501967 126 40 C117.70283211 45.91140449 109.21135367 45.66047982 99.4921875 45.48828125 C98.09253945 45.48091254 96.69287753 45.47582232 95.29321289 45.47302246 C90.1535959 45.44700798 85.01427556 45.37720187 79.875 45.3125 C68.36625 45.209375 56.8575 45.10625 45 45 C45 90.54 45 136.08 45 183 C36.42 187.95 27.84 192.9 19 198 C11.99298329 202.1581718 11.99298329 202.1581718 5 206.33984375 C2 208 2 208 0 208 C0 139.36 0 70.72 0 0 Z " fill="#37B4FC" transform="translate(161,190)"/>
</svg>
